<svg xmlns="http://www.w3.org/2000/svg" viewBox="0 0 40 40"><path fill="#fff" d="M6.5 37.5L6.5 2.5 24.793 2.5 33.5 11.207 33.5 37.5z"/><path fill="#c74343" d="M24.586,3L33,11.414V37H7V3H24.586 M25,2H6v36h28V11L25,2L25,2z"/><path fill="#ffd9d9" d="M24.5 11.5L24.5 2.5 24.793 2.5 33.5 11.207 33.5 11.5z"/><path fill="#c74343" d="M25,3.414L32.586,11H25V3.414 M25,2h-1v10h10v-1L25,2L25,2z"/><path fill="none" stroke="#c74343" d="M27.5,25.873c0-2.7-15-0.16-15,3.086c0,0.262,0.253,0.541,0.662,0.541c3.141,0,8.96-15,6.112-15s1.611,12.304,6.862,12.304C26.902,26.804,27.5,26.577,27.5,25.873z"/></svg>