<svg xmlns="http://www.w3.org/2000/svg" xmlns:xlink="http://www.w3.org/1999/xlink" viewBox="0 0 40 40"><path fill="#f5ce85" d="M23,32.5c-8.547,0-15.5-6.953-15.5-15.5S14.453,1.5,23,1.5S38.5,8.453,38.5,17S31.547,32.5,23,32.5z"/><path fill="#967a44" d="M23,2c8.271,0,15,6.729,15,15s-6.729,15-15,15S8,25.271,8,17S14.729,2,23,2 M23,1 C14.163,1,7,8.163,7,17s7.163,16,16,16s16-7.163,16-16S31.837,1,23,1L23,1z"/><path fill="#f5ce85" d="M20,35.5c-8.547,0-15.5-6.953-15.5-15.5S11.453,4.5,20,4.5S35.5,11.453,35.5,20S28.547,35.5,20,35.5 z"/><path fill="#967a44" d="M20,5c8.271,0,15,6.729,15,15s-6.729,15-15,15S5,28.271,5,20S11.729,5,20,5 M20,4 C11.163,4,4,11.163,4,20s7.163,16,16,16s16-7.163,16-16S28.837,4,20,4L20,4z"/><path fill="#f5ce85" d="M17,38.5C8.453,38.5,1.5,31.547,1.5,23S8.453,7.5,17,7.5S32.5,14.453,32.5,23S25.547,38.5,17,38.5z"/><path fill="#967a44" d="M17,8c8.271,0,15,6.729,15,15s-6.729,15-15,15S2,31.271,2,23S8.729,8,17,8 M17,7 C8.163,7,1,14.163,1,23s7.163,16,16,16s16-7.163,16-16S25.837,7,17,7L17,7z"/><g><path fill="#ffeea3" d="M17 11A12 12 0 1 0 17 35A12 12 0 1 0 17 11Z"/></g><path fill="#967a44" d="M14.881,19.537c0-0.793,0.711-1.476,2.172-1.476c1.655,0,2.846,0.469,3.772,1.03v-2.675c-0.688-0.383-1.728-0.608-3.122-0.674V13.94h-1.446v1.843c-1.209,0.119-2.18,0.544-2.913,1.273c-0.733,0.73-1.1,1.613-1.1,2.65c0,4.097,6.877,4.224,6.877,6.47c0,0.799-1.001,1.417-2.118,1.417c-2.286,0-4.108-0.968-4.491-1.278v2.744c1.156,0.601,2.404,0.905,3.745,0.911v2.09h1.446v-2.15c1.301-0.145,2.301-0.553,3.003-1.223c0.699-0.67,1.049-1.554,1.049-2.651C21.756,21.662,14.881,21.996,14.881,19.537z"/></svg>