<svg xmlns="http://www.w3.org/2000/svg" viewBox="0 0 100 100"><path fill="#ef7d98" d="M41,29.214c-1.608-3.37-4.018-5.714-8-5.714c-5.522,0-9,4.478-9,10h52c0-5.522-3.478-10-9-10 c-3.982,0-6.392,2.344-8,5.714"/><path fill="#1f212b" d="M76.5,34h-53v-0.5c0-6.084,3.995-10.5,9.5-10.5c3.76,0,6.524,1.962,8.451,5.999 c0.119,0.249,0.014,0.548-0.235,0.667c-0.254,0.118-0.548,0.013-0.667-0.236C38.78,25.725,36.382,24,33,24 c-4.854,0-8.288,3.675-8.49,9h50.98c-0.202-5.325-3.636-9-8.49-9c-3.382,0-5.78,1.725-7.549,5.429 c-0.119,0.25-0.415,0.355-0.667,0.236c-0.249-0.119-0.354-0.417-0.235-0.667C60.476,24.962,63.24,23,67,23 c5.505,0,9.5,4.416,9.5,10.5V34z"/><path fill="#ee5a6c" d="M50,16.5c-6.351,0-11.5,5.149-11.5,11.5S43.649,39.5,50,39.5S61.5,34.351,61.5,28 S56.351,16.5,50,16.5z"/><path fill="#1f212b" d="M50,40c-6.617,0-12-5.383-12-12s5.383-12,12-12s12,5.383,12,12S56.617,40,50,40z M50,17 c-6.065,0-11,4.935-11,11s4.935,11,11,11s11-4.935,11-11S56.065,17,50,17z"/><path fill="#1f212b" d="M55.5,30c-0.276,0-0.5-0.224-0.5-0.5c0-1.55-0.299-2.995-0.888-4.293 c-0.114-0.251-0.003-0.548,0.248-0.662c0.252-0.111,0.549-0.003,0.662,0.249C55.671,26.223,56,27.807,56,29.5 C56,29.776,55.776,30,55.5,30z"/><g><path fill="#1f212b" d="M52.5,22.528c-0.128,0-0.256-0.049-0.353-0.146c-0.985-0.981-1.863-1.431-1.872-1.435 c-0.246-0.125-0.346-0.425-0.222-0.671c0.124-0.247,0.424-0.346,0.67-0.223c0.041,0.021,1.022,0.518,2.129,1.621 c0.196,0.195,0.196,0.511,0.002,0.707C52.757,22.479,52.628,22.528,52.5,22.528z"/></g><g><path fill="#fefdef" d="M15,39h70v44H15V39z"/><path fill="#ef7d98" d="M15,70.5h70V83H15V70.5z M15,56h70v7H15V56z"/><path fill="#c17d48" d="M19.5,33c-2.21,0-4.5,2.29-4.5,4.5v4h39.5c2.21,0,4,1.79,4,4c0,0,0,2.648,0,3c0,1.656,1.344,3,3,3 s3-1.344,3-3c0-0.352,0-3,0-3c0-2.21,1.79-4,4-4s4,1.79,4,4c0,1.106,0.894,2,2,2s2-0.894,2-2c0-2.21,1.79-4,4-4H85V33H19.5z"/><path fill="#1f212b" d="M61.5,52c-1.93,0-3.5-1.57-3.5-3.5v-3c0-1.93-1.57-3.5-3.5-3.5H15c-0.276,0-0.5-0.224-0.5-0.5 S14.724,41,15,41h39.5c2.481,0,4.5,2.019,4.5,4.5v3c0,1.378,1.121,2.5,2.5,2.5s2.5-1.122,2.5-2.5v-3c0-2.481,2.019-4.5,4.5-4.5 s4.5,2.019,4.5,4.5c0,0.827,0.673,1.5,1.5,1.5s1.5-0.673,1.5-1.5c0-2.481,2.019-4.5,4.5-4.5H85c0.276,0,0.5,0.224,0.5,0.5 S85.276,42,85,42h-4.5c-1.93,0-3.5,1.57-3.5,3.5c0,1.378-1.121,2.5-2.5,2.5S72,46.878,72,45.5c0-1.93-1.57-3.5-3.5-3.5 S65,43.57,65,45.5v3C65,50.43,63.43,52,61.5,52z"/><path fill="#1f212b" d="M85,84H15c-0.553,0-1-0.448-1-1V38c0-3.309,2.691-6,6-6h65c0.553,0,1,0.448,1,1v50 C86,83.552,85.553,84,85,84z M16,82h68V34H20c-2.206,0-4,1.794-4,4V82z"/><path fill="#1f212b" d="M85,71H15.5c-0.276,0-0.5-0.224-0.5-0.5s0.224-0.5,0.5-0.5H85c0.276,0,0.5,0.224,0.5,0.5 S85.276,71,85,71z"/><path fill="#1f212b" d="M85,63H30.5c-0.276,0-0.5-0.224-0.5-0.5s0.224-0.5,0.5-0.5H85c0.276,0,0.5,0.224,0.5,0.5 S85.276,63,85,63z"/><path fill="#1f212b" d="M27.5,63h-6c-0.276,0-0.5-0.224-0.5-0.5s0.224-0.5,0.5-0.5h6c0.276,0,0.5,0.224,0.5,0.5 S27.776,63,27.5,63z"/><path fill="#1f212b" d="M18.5,63h-3c-0.276,0-0.5-0.224-0.5-0.5s0.224-0.5,0.5-0.5h3c0.276,0,0.5,0.224,0.5,0.5 S18.776,63,18.5,63z"/><path fill="#1f212b" d="M85,57H63c-0.276,0-0.5-0.224-0.5-0.5S62.724,56,63,56h22c0.276,0,0.5,0.224,0.5,0.5 S85.276,57,85,57z"/><path fill="#1f212b" d="M60,57H15.5c-0.276,0-0.5-0.224-0.5-0.5s0.224-0.5,0.5-0.5H60c0.276,0,0.5,0.224,0.5,0.5 S60.276,57,60,57z"/></g></svg>