<svg xmlns="http://www.w3.org/2000/svg" xmlns:xlink="http://www.w3.org/1999/xlink" viewBox="0 0 24 24" fill="#FFFFFF">
  <path d="M0 0L0 2L3.21875 2L7.21875 18L20.75 18L20.96875 17.28125L23.03125 10.34375L23.75 8L21.65625 8L21.125 9.75L19.25 16L8.78125 16L4.78125 0 Z M 12 0L7.90625 3L12 6L12 4L14 4C14.792969 4 15.25 4.214844 15.53125 4.5C15.8125 4.785156 16 5.230469 16 6L16 10L18 10L18 6C18 4.863281 17.664063 3.832031 16.9375 3.09375C16.210938 2.355469 15.167969 2 14 2L12 2 Z M 10.5 19C9.121094 19 8 20.121094 8 21.5C8 22.878906 9.121094 24 10.5 24C11.878906 24 13 22.878906 13 21.5C13 20.121094 11.878906 19 10.5 19 Z M 17.5 19C16.121094 19 15 20.121094 15 21.5C15 22.878906 16.121094 24 17.5 24C18.878906 24 20 22.878906 20 21.5C20 20.121094 18.878906 19 17.5 19Z" fill="#FFFFFF" />
</svg>