<svg xmlns="http://www.w3.org/2000/svg" xmlns:xlink="http://www.w3.org/1999/xlink" width="48" height="48" viewBox="0 0 48 48"><path fill="#BBDEFB" d="M5,39V15h38v24c0,2.209-1.791,4-4,4H9C6.791,43,5,41.209,5,39"/><path fill="#2196F3" d="M43,11v6H5v-6c0-2.209,1.791-4,4-4h30C41.209,7,43,8.791,43,11"/><path fill="#1565C0" d="M36 11c0 1.657-1.343 3-3 3s-3-1.343-3-3 1.343-3 3-3S36 9.343 36 11M18 11c0 1.657-1.343 3-3 3s-3-1.343-3-3 1.343-3 3-3S18 9.343 18 11"/><path fill="#B0BEC5" d="M33 4c-1.104 0-2 .896-2 2v5c0 1.104.896 2 2 2s2-.896 2-2V6C35 4.896 34.104 4 33 4M15 4c-1.104 0-2 .896-2 2v5c0 1.104.896 2 2 2s2-.896 2-2V6C17 4.896 16.104 4 15 4"/><g><path fill="#1565C0" d="M33.732 26.834c0 .662-.16 1.244-.482 1.749-.32.505-.764.91-1.326 1.216.637.318 1.143.753 1.516 1.305C33.811 31.654 34 32.309 34 33.063c0 1.217-.412 2.179-1.236 2.881C31.939 36.648 30.807 37 29.359 37c-1.45 0-2.596-.354-3.436-1.063-.84-.707-1.259-1.666-1.259-2.875 0-.729.185-1.375.551-1.938.368-.563.89-1.004 1.563-1.328-.57-.306-1.019-.711-1.342-1.216s-.486-1.087-.486-1.749c0-1.186.395-2.119 1.186-2.806C26.926 23.343 27.991 23 29.333 23c1.354 0 2.425.343 3.216 1.028C33.338 24.715 33.732 25.648 33.732 26.834zM30.895 32.811c0-.561-.143-.992-.428-1.295s-.66-.453-1.125-.453-.842.15-1.13.453-.433.734-.433 1.295c0 .543.146.973.438 1.287.291.314.672.471 1.145.471.459 0 .83-.154 1.113-.467C30.752 33.789 30.895 33.359 30.895 32.811zM29.333 25.432c-.417 0-.733.139-.951.416-.217.278-.325.662-.325 1.155 0 .485.109.879.33 1.179.221.299.545.448.975.448.424 0 .74-.149.951-.448.211-.3.315-.691.315-1.179 0-.485-.106-.87-.323-1.149C30.084 25.57 29.762 25.432 29.333 25.432zM20 37h-3.25V26.652l-3.192.934v-2.461L19.702 23H20V37z"/></g></svg>