<svg xmlns="http://www.w3.org/2000/svg" viewBox="0 0 64 64">
  <path d="M23.65625 4C22.320313 4 21.0625 4.519531 20.121094 5.464844L11.464844 14.121094C10.519531 15.066406 10 16.320313 10 17.65625L10 57C10 58.652344 11.347656 60 13 60L53 60C54.652344 60 56 58.652344 56 57L56 7C56 5.347656 54.652344 4 53 4 Z M 24 6L53 6C53.550781 6 54 6.449219 54 7L54 57C54 57.550781 53.550781 58 53 58L13 58C12.449219 58 12 57.550781 12 57L12 18L21 18C22.652344 18 24 16.652344 24 15 Z M 22 6.5L22 15C22 15.550781 21.550781 16 21 16L12.5 16C12.609375 15.835938 12.734375 15.679688 12.878906 15.535156L21.535156 6.878906C21.679688 6.734375 21.835938 6.609375 22 6.5 Z M 29.402344 22C28.960938 22 28.570313 22.289063 28.441406 22.714844L23.042969 40.714844C22.882813 41.242188 23.183594 41.796875 23.714844 41.957031C24.238281 42.113281 24.800781 41.816406 24.957031 41.285156L26.546875 36L32.253906 36L33.84375 41.285156C33.972656 41.722656 34.367188 42 34.796875 42C34.894531 42 34.992188 41.984375 35.089844 41.957031C35.617188 41.796875 35.917969 41.242188 35.757813 40.714844L30.359375 22.714844C30.230469 22.289063 29.839844 22 29.402344 22 Z M 29.402344 26.480469L31.65625 34L27.144531 34 Z M 41 28C40.449219 28 40 28.445313 40 29L40 32L37 32C36.449219 32 36 32.445313 36 33C36 33.554688 36.449219 34 37 34L40 34L40 37C40 37.554688 40.449219 38 41 38C41.550781 38 42 37.554688 42 37L42 34L45 34C45.550781 34 46 33.554688 46 33C46 32.445313 45.550781 32 45 32L42 32L42 29C42 28.445313 41.550781 28 41 28 Z M 15 50C14.449219 50 14 50.445313 14 51L14 53C14 53.554688 14.449219 54 15 54C15.550781 54 16 53.554688 16 53L16 51C16 50.445313 15.550781 50 15 50 Z M 20 50C19.449219 50 19 50.445313 19 51L19 53C19 53.554688 19.449219 54 20 54C20.550781 54 21 53.554688 21 53L21 51C21 50.445313 20.550781 50 20 50 Z M 25 50C24.449219 50 24 50.445313 24 51L24 53C24 53.554688 24.449219 54 25 54C25.550781 54 26 53.554688 26 53L26 51C26 50.445313 25.550781 50 25 50 Z M 30 50C29.449219 50 29 50.445313 29 51L29 53C29 53.554688 29.449219 54 30 54C30.550781 54 31 53.554688 31 53L31 51C31 50.445313 30.550781 50 30 50 Z M 35 50C34.449219 50 34 50.445313 34 51L34 53C34 53.554688 34.449219 54 35 54C35.550781 54 36 53.554688 36 53L36 51C36 50.445313 35.550781 50 35 50 Z M 40 50C39.449219 50 39 50.445313 39 51L39 53C39 53.554688 39.449219 54 40 54C40.550781 54 41 53.554688 41 53L41 51C41 50.445313 40.550781 50 40 50 Z M 45 50C44.449219 50 44 50.445313 44 51L44 53C44 53.554688 44.449219 54 45 54C45.550781 54 46 53.554688 46 53L46 51C46 50.445313 45.550781 50 45 50 Z M 50 50C49.449219 50 49 50.445313 49 51L49 53C49 53.554688 49.449219 54 50 54C50.550781 54 51 53.554688 51 53L51 51C51 50.445313 50.550781 50 50 50Z" fill="#009688" />
</svg>