<svg xmlns="http://www.w3.org/2000/svg" xmlns:xlink="http://www.w3.org/1999/xlink" viewBox="0 0 30 30"><path fill="#c2e8ff" d="M29,15c0,7.794-6.35,14-14,14C7.351,29,1,22.794,1,15S7.206,1,15,1S29,7.206,29,15z"/><path fill="#8bb7f0" d="M20.249 20.122c.318.158.636.158.796.477.477.478.477 1.273.636 1.751.158.636.318 1.273.636 1.909.159.796.477 1.592.636 2.227.104-.081.226-.157.341-.234C26.736 23.711 29 19.644 29 15c0-4.124-1.749-7.792-4.54-10.343-.338-.111-.685-.122-1.028.031-.477.16-.795.796-1.114 1.114C22 6.28 21.682 6.757 21.363 7.234c-.16.159-.318.477-.16.636 0 .159.16.159.318.159.318.16.478.16.796.318.159 0 .318.16.159.318 0 0 0 .16-.159.16-.796.795-1.591 1.432-2.386 2.227-.159.159-.318.477-.318.636 0 .159.159.159.159.318 0 .16-.159.16-.318.318-.318.16-.636.318-.795.478-.159.318 0 .795-.159 1.114-.159.795-.637 1.432-.955 2.227-.318.477-.477.955-.795 1.432 0 .636-.16 1.114.158 1.591C17.704 20.28 19.135 19.644 20.249 20.122zM19.956 1.892C18.418 1.318 16.75 1 15 1c-.288 0-.572.014-.855.03-.199.309-.357.613-.417.794-.159.795.477.636 1.114.795 0 0 .159 1.273.159 1.432.159.796-.318 1.273-.318 2.068 0 .477 0 1.273.318 1.591h.159c.159 0 .318-.159.636-.318.477-.318.955-.795 1.432-1.114.478-.318.955-.795 1.273-1.114.477-.318.795-.955.955-1.433C19.614 3.414 20.16 2.477 20 2 19.987 1.975 19.971 1.931 19.956 1.892zM1.318 15.665c.477.955 1.432 1.91 2.386 2.545.636.477 1.909.477 2.545 1.273.477.637.318 1.432.318 2.227 0 .955.636 1.75.955 2.545C7.682 24.733 7.841 25.369 8 25.846c0 .159.159 1.114.159 1.273.051.026.093.084.13.156.849.466 1.753.84 2.694 1.123.012.001.028-.009.039-.006.159 0 .795-.955.795-1.114.477-.477.795-1.114 1.273-1.432.318-.159.636-.318.954-.637.318-.318.477-.955.636-1.432.159-.317.318-.954.159-1.431-.101-.302-.159-.477-.477-.636-.954-.318-1.909-.318-2.704-1.114-.159-.318-.159-.636-.318-.955-.318-.318-1.114-.477-1.591-.636H7.682 6.568c-.477-.159-.795-.795-1.114-1.273 0-.159 0-.478-.318-.478-.318-.158-.636.16-.955 0-.159-.158-.159-.318-.159-.477 0-.478.318-.955.636-1.273.477-.318.955.159 1.432.159.159 0 .159 0 .318.159.477.159.636.795.636 1.273v.318c0 .159.159.159.318.159.159-.795.159-1.592.318-2.386 0-.955.955-1.91 1.75-2.227.318-.158.477.16.795 0 .955-.318 3.341-1.273 2.864-2.545-.318-1.114-1.273-2.226-2.545-2.068-.318.16-.477.318-.795.478-.477.318-1.432 1.273-1.909 1.273C7.046 9.939 7.046 8.825 7.205 8.347 7.364 7.711 8.796 5.643 9.75 5.961c.159.159.477.477.636.636.318.159.795.159 1.273.159.159 0 .318 0 .477-.159.159-.159.159-.159.159-.318 0-.477-.477-.955-.795-1.273s-.795-.636-1.273-.795C9.21 3.906 7.062 4.268 5.311 4.859 2.65 7.399 1 10.987 1 15c0 .067.006.133.007.199C1.121 15.36 1.23 15.518 1.318 15.665z"/><path fill="#7496c4" d="M15,2c7.29,0,13,5.71,13,13c0,7.168-5.832,13-13,13S2,22.168,2,15C2,7.71,7.71,2,15,2 M15,1C7.206,1,1,7.206,1,15s6.351,14,14,14c7.65,0,14-6.206,14-14S22.794,1,15,1L15,1z"/><path fill="#f78f8f" d="M23.001,19.148C21.675,17.276,17.5,11.06,17.5,7c0-3.032,2.467-5.5,5.5-5.5s5.5,2.468,5.5,5.5 C28.5,11.094,24.328,17.283,23.001,19.148z"/><path fill="#c74343" d="M23,2c2.757,0,5,2.243,5,5c0,3.602-3.408,8.968-4.998,11.276C21.412,15.96,18,10.572,18,7 C18,4.243,20.243,2,23,2 M23,1c-3.314,0-6,2.686-6,6c0,5.028,6,13,6,13s6-7.93,6-13C29,3.686,26.314,1,23,1L23,1z"/><g><path fill="#f2faff" d="M23 4.5A2.5 2.5 0 1 0 23 9.5A2.5 2.5 0 1 0 23 4.5Z"/><path fill="#c74343" d="M23,5c1.105,0,2,0.895,2,2s-0.895,2-2,2s-2-0.895-2-2S21.895,5,23,5 M23,4c-1.654,0-3,1.346-3,3 s1.346,3,3,3s3-1.346,3-3S24.654,4,23,4L23,4z"/></g></svg>