<svg xmlns="http://www.w3.org/2000/svg" xmlns:xlink="http://www.w3.org/1999/xlink" width="48" height="48" viewBox="0 0 48 48"><path fill="#64b5f6" d="M45,35c0,2.208-1.791,4-4,4H7c-2.209,0-4-1.792-4-4V13c0-2.21,1.791-4,4-4h34c2.209,0,4,1.79,4,4V35z"/><path fill="#37474f" d="M3 14H45V20H3z"/><path fill="#ff6f00" d="M30 26.435H37V33.565H30z"/><path fill="#ffb300" d="M37,25c-1.364,0-2.598,0.549-3.5,1.435C34.424,27.342,35,28.603,35,30s-0.576,2.658-1.5,3.565 C34.402,34.451,35.636,35,37,35c2.761,0,5-2.239,5-5S39.761,25,37,25z"/><path fill="#d50000" d="M32,30c0-1.397,0.576-2.658,1.5-3.565C32.598,25.549,31.364,25,30,25c-2.761,0-5,2.239-5,5 s2.239,5,5,5c1.364,0,2.598-0.549,3.5-1.435C32.576,32.658,32,31.397,32,30z"/></svg>