<svg xmlns="http://www.w3.org/2000/svg" xmlns:xlink="http://www.w3.org/1999/xlink" viewBox="0 0 48 48"><path fill="#64b5f6" d="M30,22c0,1.7-1.3,3-3,3H6c-1.7,0-3-1.3-3-3V9c0-1.7,1.3-3,3-3h21c1.7,0,3,1.3,3,3V22z"/><path fill="#37474f" d="M3 10H30V14H3z"/><path fill="#e3f2fd" d="M5 16H28V20H5z"/><path fill="#6c7ac6" d="M45,39c0,1.7-1.3,3-3,3H21c-1.7,0-3-1.3-3-3V26c0-1.7,1.3-3,3-3h21c1.7,0,3,1.3,3,3V39z"/><path fill="#37474f" d="M18 27H45V31H18z"/><path fill="#e8eaf6" d="M20 33H43V37H20z"/><path fill="#ffc107" d="M31 10.5L37 15 37 6zM17 37.5L11 42 11 33z"/><path fill="#ffc107" d="M45 19h-3v-4.5c0-1.4-1.1-2.5-2.5-2.5H35V9h4.5c3 0 5.5 2.5 5.5 5.5V19zM13 39H8.5c-3 0-5.5-2.5-5.5-5.5V29h3v4.5C6 34.9 7.1 36 8.5 36H13V39z"/></svg>