<svg xmlns="http://www.w3.org/2000/svg" viewBox="0 0 128 128">
  <path d="M86 1C63.4 1 45 19.4 45 42C45 64.6 63.4 83 86 83C108.6 83 127 64.6 127 42C127 19.4 108.6 1 86 1 z M 86 7C105.3 7 121 22.7 121 42C121 61.3 105.3 77 86 77C66.7 77 51 61.3 51 42C51 22.7 66.7 7 86 7 z M 86 32 A 10 10 0 0 0 76 42 A 10 10 0 0 0 86 52 A 10 10 0 0 0 96 42 A 10 10 0 0 0 86 32 z M 42.363281 62.599609C41.600781 62.599609 40.850781 62.9 40.300781 63.5L1.9003906 101.90039C1.3003906 102.40039 1 103.2 1 104L1 124C1 125.7 2.3 127 4 127L24 127C25.7 127 27 125.7 27 124L27 107L44 107C45.7 107 47 105.7 47 104L47 87L61 87C62.7 87 64 85.7 64 84C64 82.3 62.7 81 61 81L44 81C42.3 81 41 82.3 41 84L41 101L24 101C22.3 101 21 102.3 21 104L21 121L7 121L7 105.19922L44.5 67.699219C45.7 66.499219 45.7 64.6 44.5 63.5C43.9 62.9 43.125781 62.599609 42.363281 62.599609 z" fill="#51260E" />
</svg>