<svg xmlns="http://www.w3.org/2000/svg" viewBox="0 0 64 64">
  <path d="M28.300781 10.800781C17.100781 10.800781 7.9003906 20.000391 7.9003906 31.400391C7.9003906 42.800391 17.000781 52 28.300781 52C33.500781 52 38.200781 50.000781 41.800781 46.800781L43 48L41.900391 49.099609C41.300391 49.699609 41.300391 50.700781 41.900391 51.300781L50.900391 60.400391C51.200391 60.700391 51.6 60.900391 52 60.900391C52.4 60.900391 52.8 60.800391 53 60.400391L57 56.400391C57.5 55.700391 57.500391 54.799219 56.900391 54.199219L47.900391 45.099609C47.600391 44.799609 47.200781 44.699219 46.800781 44.699219C46.400781 44.699219 46.000781 44.799609 45.800781 45.099609L44.800781 46.199219L43.599609 45C46.799609 41.3 48.699219 36.600391 48.699219 31.400391C48.699219 20.000391 39.500781 10.800781 28.300781 10.800781 z M 28.300781 13.900391C37.900781 13.900391 45.699219 21.8 45.699219 31.5C45.699219 41.2 37.900781 49 28.300781 49C18.700781 49 10.900391 41.2 10.900391 31.5C10.900391 21.8 18.700781 13.900391 28.300781 13.900391 z M 28.400391 20.099609C23.600391 20.099609 19.400781 23.099609 17.800781 27.599609C17.500781 28.299609 17.9 29.100781 18.5 29.300781C18.6 29.300781 18.8 29.400391 19 29.400391C19.5 29.400391 20.000781 29 20.300781 28.5C21.500781 25 24.800391 22.699219 28.400391 22.699219C29.100391 22.699219 29.699219 22.100391 29.699219 21.400391C29.699219 20.700391 29.100391 20.099609 28.400391 20.099609 z M 18.900391 32.5C18.200391 32.5 17.599609 33.000781 17.599609 33.800781L17.599609 34C17.599609 34.7 18.100391 35.300781 18.900391 35.300781C19.600391 35.300781 20.199219 34.7 20.199219 34L20.199219 33.800781C20.199219 33.000781 19.700391 32.5 18.900391 32.5 z M 46.900391 48.300781L53.800781 55.300781L51.900391 57.199219L45 50.199219L46.900391 48.300781 z" fill="#51260E" />
</svg>