<svg xmlns="http://www.w3.org/2000/svg" xmlns:xlink="http://www.w3.org/1999/xlink" viewBox="0 0 80 80" fill="#FFFFFF">
  <path d="M13 11C10.800781 11 9 12.800781 9 15L11 15C11 13.882813 11.882813 13 13 13L67 13C68.117188 13 69 13.882813 69 15L71 15C71 12.800781 69.199219 11 67 11 Z M 9 17C6.800781 17 5 18.800781 5 21L5 65C5 67.199219 6.800781 69 9 69L71 69C73.199219 69 75 67.199219 75 65L75 21C75 18.800781 73.199219 17 71 17 Z M 9 19L71 19C72.117188 19 73 19.882813 73 21L73 65C73 66.117188 72.117188 67 71 67L60 67L60 64.730469C60.617188 64.371094 61 63.714844 61 63C61 61.894531 60.105469 61 59 61C57.894531 61 57 61.894531 57 63C57 63.714844 57.382813 64.375 58 64.730469L58 67L22 67L22 64.730469C22.617188 64.371094 23 63.714844 23 63C23 61.894531 22.105469 61 21 61C19.894531 61 19 61.894531 19 63C19 63.714844 19.382813 64.375 20 64.730469L20 67L9 67C7.882813 67 7 66.117188 7 65L7 21C7 19.882813 7.882813 19 9 19 Z M 23 32C19.699219 32 17 34.699219 17 38C17 39.980469 17.976563 41.742188 19.46875 42.835938C16.828125 44.144531 15 46.863281 15 50L17 50C17 46.675781 19.675781 44 23 44C26.324219 44 29 46.675781 29 50L31 50C31 46.863281 29.171875 44.144531 26.53125 42.835938C28.023438 41.742188 29 39.980469 29 38C29 34.699219 26.300781 32 23 32 Z M 23 34C25.222656 34 27 35.777344 27 38C27 40.222656 25.222656 42 23 42C20.777344 42 19 40.222656 19 38C19 35.777344 20.777344 34 23 34 Z M 39 34L39 36L65 36L65 34 Z M 39 40L39 42L61 42L61 40 Z M 39 46L39 48L65 48L65 46 Z M 12 62C11.449219 62 11 62.449219 11 63C11 63.550781 11.449219 64 12 64C12.550781 64 13 63.550781 13 63C13 62.449219 12.550781 62 12 62 Z M 16 62C15.449219 62 15 62.449219 15 63C15 63.550781 15.449219 64 16 64C16.550781 64 17 63.550781 17 63C17 62.449219 16.550781 62 16 62 Z M 26 62C25.449219 62 25 62.449219 25 63C25 63.550781 25.449219 64 26 64C26.550781 64 27 63.550781 27 63C27 62.449219 26.550781 62 26 62 Z M 30 62C29.449219 62 29 62.449219 29 63C29 63.550781 29.449219 64 30 64C30.550781 64 31 63.550781 31 63C31 62.449219 30.550781 62 30 62 Z M 34 62C33.449219 62 33 62.449219 33 63C33 63.550781 33.449219 64 34 64C34.550781 64 35 63.550781 35 63C35 62.449219 34.550781 62 34 62 Z M 38 62C37.449219 62 37 62.449219 37 63C37 63.550781 37.449219 64 38 64C38.550781 64 39 63.550781 39 63C39 62.449219 38.550781 62 38 62 Z M 42 62C41.449219 62 41 62.449219 41 63C41 63.550781 41.449219 64 42 64C42.550781 64 43 63.550781 43 63C43 62.449219 42.550781 62 42 62 Z M 46 62C45.449219 62 45 62.449219 45 63C45 63.550781 45.449219 64 46 64C46.550781 64 47 63.550781 47 63C47 62.449219 46.550781 62 46 62 Z M 50 62C49.449219 62 49 62.449219 49 63C49 63.550781 49.449219 64 50 64C50.550781 64 51 63.550781 51 63C51 62.449219 50.550781 62 50 62 Z M 54 62C53.449219 62 53 62.449219 53 63C53 63.550781 53.449219 64 54 64C54.550781 64 55 63.550781 55 63C55 62.449219 54.550781 62 54 62 Z M 64 62C63.449219 62 63 62.449219 63 63C63 63.550781 63.449219 64 64 64C64.550781 64 65 63.550781 65 63C65 62.449219 64.550781 62 64 62 Z M 68 62C67.449219 62 67 62.449219 67 63C67 63.550781 67.449219 64 68 64C68.550781 64 69 63.550781 69 63C69 62.449219 68.550781 62 68 62Z" fill="#FFFFFF" />
</svg>