<svg xmlns="http://www.w3.org/2000/svg" viewBox="0 0 40 40"><path fill="#a6714e" d="M8.5 1.5H31.5V32.5H8.5z"/><path fill="#7a4f34" d="M31,2v30H9V2H31 M32,1H8v32h24V1L32,1z"/><path fill="#c79371" d="M9.5 2.5H16.5V9.5H9.5z"/><path fill="#996342" d="M16,3v6h-6V3H16 M17,2h-1h-6H9v1v6v1h1h6h1V9V3V2L17,2z"/><path fill="#c79371" d="M16.5 2.5H23.5V9.5H16.5z"/><path fill="#996342" d="M23,3v6h-6V3H23 M24,2h-1h-6h-1v1v6v1h1h6h1V9V3V2L24,2z"/><path fill="#c79371" d="M23.5 2.5H30.5V9.5H23.5z"/><path fill="#996342" d="M30,3v6h-6V3H30 M31,2h-1h-6h-1v1v6v1h1h6h1V9V3V2L31,2z"/><path fill="#c79371" d="M9.5 9.5H16.5V16.5H9.5z"/><path fill="#996342" d="M16,10v6h-6v-6H16 M17,9h-1h-6H9v1v6v1h1h6h1v-1v-6V9L17,9z"/><path fill="#c79371" d="M16.5 9.5H23.5V16.5H16.5z"/><path fill="#996342" d="M23,10v6h-6v-6H23 M24,9h-1h-6h-1v1v6v1h1h6h1v-1v-6V9L24,9z"/><path fill="#c79371" d="M23.5 9.5H30.5V16.5H23.5z"/><path fill="#996342" d="M30,10v6h-6v-6H30 M31,9h-1h-6h-1v1v6v1h1h6h1v-1v-6V9L31,9z"/><g><path fill="#c79371" d="M9.5 16.5H16.5V23.5H9.5z"/><path fill="#996342" d="M16,17v6h-6v-6H16 M17,16h-1h-6H9v1v6v1h1h6h1v-1v-6V16L17,16z"/></g><g><path fill="#c79371" d="M16.5 16.5H23.5V23.5H16.5z"/><path fill="#996342" d="M23,17v6h-6v-6H23 M24,16h-1h-6h-1v1v6v1h1h6h1v-1v-6V16L24,16z"/></g><g><path fill="#c79371" d="M23.5 16.5H30.5V23.5H23.5z"/><path fill="#996342" d="M30,17v6h-6v-6H30 M31,16h-1h-6h-1v1v6v1h1h6h1v-1v-6V16L31,16z"/></g><g><path fill="#f78f8f" d="M8,38.5c-0.276,0-0.5-0.225-0.5-0.5V17.561l24.558,2.834c0.252,0.029,0.442,0.243,0.442,0.497V38 c0,0.275-0.224,0.5-0.5,0.5H8z"/><path fill="#c74343" d="M8,18.122l24,2.769V38H8V18.122 M7,17v21c0,0.552,0.448,1,1,1h24c0.552,0,1-0.448,1-1V20.891 c0-0.508-0.381-0.935-0.885-0.993L7,17L7,17z"/></g><g><path fill="#e07070" d="M8 19L8 18 32 21.545 32 30.455 24 33z"/></g><g><path fill="#dcd5f2" d="M7.5,17.741v-0.181l24.677,2.848c0.225,0.026,0.405,0.201,0.437,0.426l0.831,5.811l-9.355,2.807 L7.5,17.741z"/><path fill="#8b75a1" d="M9.084,18.247l23.035,2.658l0.769,5.384l-8.709,2.613L9.084,18.247 M7,17v1l17,12l10-3 l-0.891-6.236c-0.064-0.45-0.424-0.8-0.875-0.852L7,17L7,17z"/></g></svg>