<svg xmlns="http://www.w3.org/2000/svg" xmlns:xlink="http://www.w3.org/1999/xlink" viewBox="0 0 128 128"><path fill="#fff" d="M114,109H34c-5.5,0-10-4.5-10-10V49c0-5.5,4.5-10,10-10h80c5.5,0,10,4.5,10,10v50C124,104.5,119.5,109,114,109z"/><path fill="#fff" d="M33 71H94V81H33z"/><path fill="#9eb9d3" d="M112 49H124V65H112z"/><path fill="#444b54" d="M114,112H34c-7.2,0-13-5.8-13-13c0-1.7,1.3-3,3-3s3,1.3,3,3c0,3.9,3.1,7,7,7h80c3.9,0,7-3.1,7-7V49c0-3.9-3.1-7-7-7c-1.7,0-3-1.3-3-3s1.3-3,3-3c7.2,0,13,5.8,13,13v50C127,106.2,121.2,112,114,112z"/><path fill="#fff" d="M94,89H14C8.5,89,4,84.5,4,79V29c0-5.5,4.5-10,10-10h80c5.5,0,10,4.5,10,10v50C104,84.5,99.5,89,94,89z"/><path fill="#f8e390" d="M14 46H34V62H14z"/><path fill="#c7d6e2" d="M14 70H26V76H14zM32 70H44V76H32zM50 70H62V76H50zM68 70H80V76H68z"/><path fill="#444b54" d="M94,92H14C6.8,92,1,86.2,1,79V29c0-7.2,5.8-13,13-13h80c7.2,0,13,5.8,13,13v50C107,86.2,101.2,92,94,92z M14,22c-3.9,0-7,3.1-7,7v50c0,3.9,3.1,7,7,7h80c3.9,0,7-3.1,7-7V29c0-3.9-3.1-7-7-7H14z"/><g><path fill="#444b54" d="M34,126c-11.6,0-21.3-7.9-24.2-18.6l-0.7,0.7c-1.2,1.2-3.1,1.2-4.2,0c-1.2-1.2-1.2-3.1,0-4.2l5-5c0.9-0.9,2.1-1.1,3.3-0.7c1.1,0.5,1.9,1.6,1.9,2.8c0,10.5,8.5,19,19,19c1.7,0,3,1.3,3,3S35.7,126,34,126z"/></g><g><path fill="#444b54" d="M116,30c-0.4,0-0.8-0.1-1.1-0.2c-1.1-0.5-1.9-1.6-1.9-2.8c0-10.5-8.5-19-19-19c-1.7,0-3-1.3-3-3s1.3-3,3-3c11.6,0,21.3,7.9,24.2,18.6l0.7-0.7c1.2-1.2,3.1-1.2,4.2,0c1.2,1.2,1.2,3.1,0,4.2l-5,5C117.5,29.7,116.8,30,116,30z"/></g></svg>