<svg xmlns="http://www.w3.org/2000/svg" viewBox="0 0 80 80">
  <path d="M13 10C11.355469 10 10 11.355469 10 13L10 67C10 68.644531 11.355469 70 13 70L23 70C23.777344 70 24.464844 69.660156 25 69.167969C25.535156 69.660156 26.222656 70 27 70L37 70C37.777344 70 38.464844 69.660156 39 69.167969C39.535156 69.660156 40.222656 70 41 70L51 70C51.777344 70 52.464844 69.660156 53 69.167969C53.535156 69.660156 54.222656 70 55 70L67 70C68.644531 70 70 68.644531 70 67L70 13C70 11.355469 68.644531 10 67 10L55 10C53.355469 10 52 11.355469 52 13L52 19.417969C51.65625 19.277344 51.386719 19 51 19L41 19C39.355469 19 38 20.355469 38 22L38 30.417969C37.65625 30.277344 37.386719 30 37 30L27 30C26.613281 30 26.34375 30.277344 26 30.417969L26 13C26 11.355469 24.644531 10 23 10 Z M 13 12L23 12C23.566406 12 24 12.433594 24 13L24 33L26 33C26 32.433594 26.433594 32 27 32L37 32C37.566406 32 38 32.433594 38 33L40 33L40 22C40 21.433594 40.433594 21 41 21L51 21C51.566406 21 52 21.433594 52 22L54 22L54 13C54 12.433594 54.433594 12 55 12L67 12C67.566406 12 68 12.433594 68 13L68 67C68 67.566406 67.566406 68 67 68L55 68C54.433594 68 54 67.566406 54 67L52 67C52 67.566406 51.566406 68 51 68L41 68C40.433594 68 40 67.566406 40 67L38 67C38 67.566406 37.566406 68 37 68L27 68C26.433594 68 26 67.566406 26 67L24 67C24 67.566406 23.566406 68 23 68L13 68C12.433594 68 12 67.566406 12 67L12 13C12 12.433594 12.433594 12 13 12 Z M 14 17L14 19L22 19L22 17 Z M 56 17L56 19L66 19L66 17 Z M 53 23C52.449219 23 52 23.449219 52 24C52 24.550781 52.449219 25 53 25C53.550781 25 54 24.550781 54 24C54 23.449219 53.550781 23 53 23 Z M 53 27C52.449219 27 52 27.449219 52 28C52 28.550781 52.449219 29 53 29C53.550781 29 54 28.550781 54 28C54 27.449219 53.550781 27 53 27 Z M 42 29L42 31L50 31L50 29 Z M 53 31C52.449219 31 52 31.449219 52 32C52 32.550781 52.449219 33 53 33C53.550781 33 54 32.550781 54 32C54 31.449219 53.550781 31 53 31 Z M 25 35C24.449219 35 24 35.449219 24 36C24 36.550781 24.449219 37 25 37C25.550781 37 26 36.550781 26 36C26 35.449219 25.550781 35 25 35 Z M 39 35C38.449219 35 38 35.449219 38 36C38 36.550781 38.449219 37 39 37C39.550781 37 40 36.550781 40 36C40 35.449219 39.550781 35 39 35 Z M 53 35C52.449219 35 52 35.449219 52 36C52 36.550781 52.449219 37 53 37C53.550781 37 54 36.550781 54 36C54 35.449219 53.550781 35 53 35 Z M 28 37L28 39L36 39L36 37 Z M 25 39C24.449219 39 24 39.449219 24 40C24 40.550781 24.449219 41 25 41C25.550781 41 26 40.550781 26 40C26 39.449219 25.550781 39 25 39 Z M 39 39C38.449219 39 38 39.449219 38 40C38 40.550781 38.449219 41 39 41C39.550781 41 40 40.550781 40 40C40 39.449219 39.550781 39 39 39 Z M 53 39C52.449219 39 52 39.449219 52 40C52 40.550781 52.449219 41 53 41C53.550781 41 54 40.550781 54 40C54 39.449219 53.550781 39 53 39 Z M 25 43C24.449219 43 24 43.449219 24 44C24 44.550781 24.449219 45 25 45C25.550781 45 26 44.550781 26 44C26 43.449219 25.550781 43 25 43 Z M 39 43C38.449219 43 38 43.449219 38 44C38 44.550781 38.449219 45 39 45C39.550781 45 40 44.550781 40 44C40 43.449219 39.550781 43 39 43 Z M 53 43C52.449219 43 52 43.449219 52 44C52 44.550781 52.449219 45 53 45C53.550781 45 54 44.550781 54 44C54 43.449219 53.550781 43 53 43 Z M 25 47C24.449219 47 24 47.449219 24 48C24 48.550781 24.449219 49 25 49C25.550781 49 26 48.550781 26 48C26 47.449219 25.550781 47 25 47 Z M 39 47C38.449219 47 38 47.449219 38 48C38 48.550781 38.449219 49 39 49C39.550781 49 40 48.550781 40 48C40 47.449219 39.550781 47 39 47 Z M 53 47C52.449219 47 52 47.449219 52 48C52 48.550781 52.449219 49 53 49C53.550781 49 54 48.550781 54 48C54 47.449219 53.550781 47 53 47 Z M 25 51C24.449219 51 24 51.449219 24 52C24 52.550781 24.449219 53 25 53C25.550781 53 26 52.550781 26 52C26 51.449219 25.550781 51 25 51 Z M 39 51C38.449219 51 38 51.449219 38 52C38 52.550781 38.449219 53 39 53C39.550781 53 40 52.550781 40 52C40 51.449219 39.550781 51 39 51 Z M 53 51C52.449219 51 52 51.449219 52 52C52 52.550781 52.449219 53 53 53C53.550781 53 54 52.550781 54 52C54 51.449219 53.550781 51 53 51 Z M 25 55C24.449219 55 24 55.449219 24 56C24 56.550781 24.449219 57 25 57C25.550781 57 26 56.550781 26 56C26 55.449219 25.550781 55 25 55 Z M 39 55C38.449219 55 38 55.449219 38 56C38 56.550781 38.449219 57 39 57C39.550781 57 40 56.550781 40 56C40 55.449219 39.550781 55 39 55 Z M 53 55C52.449219 55 52 55.449219 52 56C52 56.550781 52.449219 57 53 57C53.550781 57 54 56.550781 54 56C54 55.449219 53.550781 55 53 55 Z M 14 59L14 61L22 61L22 59 Z M 25 59C24.449219 59 24 59.449219 24 60C24 60.550781 24.449219 61 25 61C25.550781 61 26 60.550781 26 60C26 59.449219 25.550781 59 25 59 Z M 28 59L28 61L36 61L36 59 Z M 39 59C38.449219 59 38 59.449219 38 60C38 60.550781 38.449219 61 39 61C39.550781 61 40 60.550781 40 60C40 59.449219 39.550781 59 39 59 Z M 42 59L42 61L50 61L50 59 Z M 53 59C52.449219 59 52 59.449219 52 60C52 60.550781 52.449219 61 53 61C53.550781 61 54 60.550781 54 60C54 59.449219 53.550781 59 53 59 Z M 56 59L56 61L66 61L66 59 Z M 25 63C24.449219 63 24 63.449219 24 64C24 64.550781 24.449219 65 25 65C25.550781 65 26 64.550781 26 64C26 63.449219 25.550781 63 25 63 Z M 39 63C38.449219 63 38 63.449219 38 64C38 64.550781 38.449219 65 39 65C39.550781 65 40 64.550781 40 64C40 63.449219 39.550781 63 39 63 Z M 53 63C52.449219 63 52 63.449219 52 64C52 64.550781 52.449219 65 53 65C53.550781 65 54 64.550781 54 64C54 63.449219 53.550781 63 53 63Z" fill="#5BCAC4" />
</svg>