<svg xmlns="http://www.w3.org/2000/svg" xmlns:xlink="http://www.w3.org/1999/xlink" width="48" height="48" viewBox="0 0 48 48"><path fill="#BBDEFB" d="M5,39V15h38v24c0,2.209-1.791,4-4,4H9C6.791,43,5,41.209,5,39"/><path fill="#2196F3" d="M43,11v6H5v-6c0-2.209,1.791-4,4-4h30C41.209,7,43,8.791,43,11"/><path fill="#1565C0" d="M36 11c0 1.657-1.343 3-3 3s-3-1.343-3-3 1.343-3 3-3S36 9.343 36 11M18 11c0 1.657-1.343 3-3 3s-3-1.343-3-3 1.343-3 3-3S18 9.343 18 11"/><path fill="#B0BEC5" d="M33 4c-1.104 0-2 .896-2 2v5c0 1.104.896 2 2 2s2-.896 2-2V6C35 4.896 34.104 4 33 4M15 4c-1.104 0-2 .896-2 2v5c0 1.104.896 2 2 2s2-.896 2-2V6C17 4.896 16.104 4 15 4"/><g><path fill="#1565C0" d="M16.188 28.688h1.485c1.181 0 1.769-.578 1.769-1.729 0-.448-.141-.813-.42-1.101-.281-.282-.678-.426-1.188-.426-.417 0-.78.123-1.09.365-.308.242-.463.544-.463.906H13.13c0-.719.201-1.355.6-1.917.397-.561.951-.999 1.66-1.313C16.096 23.159 16.874 23 17.723 23c1.515 0 2.705.346 3.571 1.038.865.692 1.3 1.644 1.3 2.853 0 .586-.18 1.139-.537 1.66s-.881.942-1.566 1.268c.724.264 1.291.66 1.701 1.191.412.533.617 1.192.617 1.979 0 1.215-.468 2.188-1.402 2.918C20.471 36.635 19.242 37 17.723 37c-.895 0-1.721-.17-2.483-.51-.765-.34-1.343-.813-1.735-1.412-.393-.602-.59-1.286-.59-2.053h3.17c0 .418.168.776.506 1.084.338.307.752.459 1.243.459.558 0 .997-.154 1.328-.463.331-.311.495-.703.495-1.185 0-.687-.172-1.172-.514-1.459-.342-.287-.817-.43-1.422-.43h-1.533V28.688zM33 37h-3.25V26.652l-3.193.934v-2.461L32.701 23H33V37z"/></g></svg>