<svg xmlns="http://www.w3.org/2000/svg" viewBox="0 0 64 64">
  <path d="M7.6992188 9.5C5.121441 9.5 3 11.621441 3 14.199219C3 15.543663 3.6037509 16.724845 4.4394531 17.560547L4.453125 17.574219L27.480469 39.5L27.496094 39.515625C28.734276 40.629989 30.315385 41.300781 32 41.300781C33.684615 41.300781 35.265724 40.629989 36.503906 39.515625L36.517578 39.501953L58 19.119141L58 47.400391C58 49.060391 56.560391 50.5 54.900391 50.5L9.0996094 50.5C7.4396094 50.5 6 49.060391 6 47.400391L6 29 A 1.50015 1.50015 0 1 0 3 29L3 47.400391C3 50.740391 5.7596094 53.5 9.0996094 53.5L54.900391 53.5C58.240391 53.5 61 50.740391 61 47.400391L61 14.199219L61 13.900391 A 1.50015 1.50015 0 0 0 60.900391 13.34375L60.900391 13.089844L60.841797 12.888672C60.252599 10.826487 58.343638 9.5 56.300781 9.5L7.6992188 9.5 z M 7.6992188 12.5L56.300781 12.5C57.023559 12.5 57.658458 12.951735 57.900391 13.632812L57.900391 13.699219C57.900391 13.950226 57.953297 14.083916 57.992188 14.21875C57.986187 14.665307 57.79876 15.079313 57.441406 15.4375L56.339844 16.453125L55.5 16.873047L55.5 17.355469L34.496094 37.285156C34.496094 37.285156 34.494141 37.285156 34.494141 37.285156C33.732699 37.969979 32.914852 38.300781 32 38.300781C31.085148 38.300781 30.267301 37.969979 29.505859 37.285156L29.503906 37.285156L6.5605469 15.439453L6.5605469 15.4375C6.1971642 15.073582 6 14.654179 6 14.199219C6 13.176997 6.6769965 12.5 7.6992188 12.5 z" fill="#51260E" />
</svg>