<svg xmlns="http://www.w3.org/2000/svg" viewBox="0 0 64 64"><linearGradient id="18MvL_IZQirGgavVcE4WQa" x1="32" x2="32" y1="27.167" y2="38.726" gradientUnits="userSpaceOnUse" spreadMethod="reflect"><stop offset="0" stop-color="#6dc7ff"/><stop offset="1" stop-color="#e6abff"/></linearGradient><path fill="url(#18MvL_IZQirGgavVcE4WQa)" d="M32 28A4 4 0 1 0 32 36A4 4 0 1 0 32 28Z"/><linearGradient id="18MvL_IZQirGgavVcE4WQb" x1="32" x2="32" y1="3.667" y2="57.204" gradientUnits="userSpaceOnUse" spreadMethod="reflect"><stop offset="0" stop-color="#1a6dff"/><stop offset="1" stop-color="#c822ff"/></linearGradient><path fill="url(#18MvL_IZQirGgavVcE4WQb)" d="M55,32c0,12.683-10.318,23-23,23S9,44.683,9,32S19.318,9,32,9 c4.736,0,9.227,1.424,13.079,4.099l-2.456,2.457c-0.524,0.523-0.735,1.268-0.565,1.989c0.17,0.721,0.692,1.292,1.395,1.525 l8.278,2.759c0.34,0.113,0.688,0.169,1.032,0.169c0.844,0,1.665-0.331,2.285-0.952c0.874-0.874,1.173-2.145,0.782-3.316 l-2.759-8.277c-0.234-0.703-0.805-1.225-1.526-1.395c-0.721-0.173-1.464,0.041-1.989,0.564l-3.044,3.044C42.26,8.622,37.27,7,32,7 C18.215,7,7,18.215,7,32s11.215,25,25,25s25-11.215,25-25H55z M50.969,10.036c0.01-0.01,0.036-0.036,0.083-0.036 c0.01,0,0.021,0.001,0.032,0.004c0.067,0.016,0.083,0.064,0.089,0.081l2.759,8.277c0.152,0.455,0.04,0.931-0.299,1.27 c-0.34,0.34-0.815,0.45-1.271,0.301l-8.278-2.76c-0.018-0.006-0.065-0.021-0.081-0.088s0.021-0.103,0.033-0.115L50.969,10.036z"/><linearGradient id="18MvL_IZQirGgavVcE4WQc" x1="34.853" x2="34.853" y1="3.667" y2="57.204" gradientUnits="userSpaceOnUse" spreadMethod="reflect"><stop offset="0" stop-color="#1a6dff"/><stop offset="1" stop-color="#c822ff"/></linearGradient><path fill="url(#18MvL_IZQirGgavVcE4WQc)" d="M34.753,36.167l6.54,6.54l1.414-1.414l-6.54-6.54C36.691,33.962,37,33.018,37,32 c0-2.415-1.721-4.434-4-4.899V19h-2v8.101c-2.279,0.465-4,2.484-4,4.899c0,2.757,2.243,5,5,5C33.017,37,33.962,36.691,34.753,36.167 z M29,32c0-1.654,1.346-3,3-3s3,1.346,3,3s-1.346,3-3,3S29,33.654,29,32z"/><linearGradient id="18MvL_IZQirGgavVcE4WQd" x1="21.5" x2="21.5" y1="3.667" y2="57.204" gradientUnits="userSpaceOnUse" spreadMethod="reflect"><stop offset="0" stop-color="#1a6dff"/><stop offset="1" stop-color="#c822ff"/></linearGradient><path fill="url(#18MvL_IZQirGgavVcE4WQd)" d="M13,32h-2c0,11.579,9.42,21,21,21v-2C21.523,51,13,42.477,13,32z"/></svg>