<svg xmlns="http://www.w3.org/2000/svg" xmlns:xlink="http://www.w3.org/1999/xlink" viewBox="0 0 128 128"><path fill="#fff" d="M65 57H115V107H65z" transform="rotate(-30.8 90.002 81.998)"/><path fill="#fff" d="M62 88A18 18 0 1 0 62 124A18 18 0 1 0 62 88Z" transform="matrix(.00519 -1 1 .00519 -44.32 167.45)"/><path fill="#444b54" d="M62,127c0,0-0.1,0-0.1,0c-11.6-0.1-21-9.5-20.9-21.1C41.1,94.3,50.5,85,62,85c0,0,0.1,0,0.1,0c11.6,0.1,21,9.5,20.9,21.1C82.9,117.7,73.5,127,62,127z M62,91c-8.2,0-15,6.7-15,14.9c0,8.3,6.7,15,14.9,15.1c0,0,0.1,0,0.1,0c8.2,0,15-6.7,15-14.9C77,97.8,70.3,91,62,91C62.1,91,62,91,62,91z"/><path fill="#444b54" d="M126.4 89.6l-25-43.3c-.4-.7-1.1-1.2-1.8-1.4-.8-.2-1.6-.1-2.3.3L56.7 68.7 36.2 33.2c-.6-1-1.6-1.6-2.7-1.5L23.9 32c-1.7.1-3 1.4-2.9 3.1.1 1.7 1.5 3 3.1 2.9l7.8-.3 23.6 40.9c.6 1 1.6 1.5 2.6 1.5.5 0 1-.1 1.5-.4 1.4-.8 1.9-2.7 1.1-4.1l-1-1.7 16.5-9.5 3.5 6.1c.6 1 1.6 1.5 2.6 1.5.5 0 1-.1 1.5-.4 1.4-.8 1.9-2.7 1.1-4.1l-3.5-6.1 16.5-9.5 22 38.1-32.1 18.5c-1.4.8-1.9 2.7-1.1 4.1.6 1 1.6 1.5 2.6 1.5.5 0 1-.1 1.5-.4l34.7-20c.7-.4 1.2-1.1 1.4-1.8C126.9 91.2 126.8 90.3 126.4 89.6zM42 124L92 124M92 127H42c-1.7 0-3-1.3-3-3s1.3-3 3-3h50c1.7 0 3 1.3 3 3S93.7 127 92 127z"/><g><path fill="#444b54" d="M27,127c-0.2,0-0.4,0-0.6-0.1c-0.2,0-0.4-0.1-0.6-0.2c-0.2-0.1-0.3-0.2-0.5-0.3c-0.2-0.1-0.3-0.2-0.4-0.4c-0.1-0.1-0.3-0.3-0.4-0.5c-0.1-0.2-0.2-0.3-0.3-0.5c-0.1-0.2-0.1-0.4-0.2-0.6c0-0.2-0.1-0.4-0.1-0.6c0-0.8,0.3-1.6,0.9-2.1c0.1-0.1,0.3-0.3,0.4-0.4c0.2-0.1,0.3-0.2,0.5-0.3c0.2-0.1,0.4-0.1,0.6-0.2c0.4-0.1,0.8-0.1,1.2,0c0.2,0,0.4,0.1,0.6,0.2c0.2,0.1,0.4,0.2,0.5,0.3c0.2,0.1,0.3,0.2,0.5,0.4c0.6,0.6,0.9,1.3,0.9,2.1c0,0.2,0,0.4-0.1,0.6c0,0.2-0.1,0.4-0.2,0.6c-0.1,0.2-0.2,0.4-0.3,0.5c-0.1,0.2-0.2,0.3-0.4,0.5c-0.1,0.1-0.3,0.3-0.5,0.4c-0.2,0.1-0.3,0.2-0.5,0.3c-0.2,0.1-0.4,0.1-0.6,0.2C27.4,127,27.2,127,27,127z"/></g></svg>