<svg xmlns="http://www.w3.org/2000/svg" viewBox="0 0 48 48"><path fill="#ff4081" d="M28 7h10v2H28V7zM27 10h10v2H27V10zM26 13h10v2H26V13z"/><path fill="#ff80ab" d="M25.3,17H12c-1.1,0-2-0.9-2-2V5c0-1.1,0.9-2,2-2h24.6c1.2,0,1.9,1.5,1,2.4l-10.9,11 C26.3,16.8,25.8,17,25.3,17z"/><path fill="#d81b60" d="M32.9 13h-2.8l-2 2h2.8L32.9 13zM33 10l-2 2h2.8l2-2H33zM38 7h-2l-2 2h2.8L38 7.8V7z"/><path fill="#9c27b0" d="M24,14H13V6h19L24,14z"/><path fill="#ce93d8" d="M21.4,11H17c-0.6,0-1-0.4-1-1s0.4-1,1-1h3.6l1-1H25c0.6,0,1,0.4,1,1s-0.4,1-1,1h-2.6L21.4,11z"/><path fill="#4a148c" d="M15,8h4v4h-4V8z"/><path fill="#ff4081" d="M28 21h10v2H28V21zM27 24h10v2H27V24zM26 27h10v2H26V27z"/><path fill="#ff80ab" d="M25.3,31H12c-1.1,0-2-0.9-2-2V19c0-1.1,0.9-2,2-2h24.6c1.2,0,1.9,1.5,1,2.4l-10.9,11 C26.3,30.8,25.8,31,25.3,31z"/><path fill="#d81b60" d="M32.9 27h-2.8l-2 2h2.8L32.9 27zM33 24l-2 2h2.8l2-2H33zM38 21h-2l-2 2h2.8l1.2-1.2V21z"/><path fill="#9c27b0" d="M24,28H13v-8h19L24,28z"/><path fill="#ce93d8" d="M21.4,25H17c-0.6,0-1-0.4-1-1s0.4-1,1-1h3.6l1-1H25c0.6,0,1,0.4,1,1s-0.4,1-1,1h-2.6L21.4,25z"/><path fill="#4a148c" d="M15,22h4v4h-4V22z"/><path fill="#ff4081" d="M28 35h10v2H28V35zM27 38h10v2H27V38zM26 41h10v2H26V41z"/><path fill="#ff80ab" d="M25.3,45H12c-1.1,0-2-0.9-2-2V33c0-1.1,0.9-2,2-2h24.6c1.2,0,1.9,1.5,1,2.4l-10.9,11 C26.3,44.8,25.8,45,25.3,45z"/><path fill="#d81b60" d="M32.9 41h-2.8l-2 2h2.8L32.9 41zM33 38l-2 2h2.8l2-2H33zM38 35h-2l-2 2h2.8l1.2-1.2V35z"/><path fill="#9c27b0" d="M24,42H13v-8h19L24,42z"/><path fill="#ce93d8" d="M21.4,39H17c-0.6,0-1-0.4-1-1s0.4-1,1-1h3.6l1-1H25c0.6,0,1,0.4,1,1s-0.4,1-1,1h-2.6L21.4,39z"/><path fill="#4a148c" d="M15,36h4v4h-4V36z"/><path fill="#ff4081" d="M10 15c0 1.1.9 2 2 2h13.3c.5 0 1-.2 1.4-.6l1.4-1.4H10zM10 29c0 1.1.9 2 2 2h13.3c.5 0 1-.2 1.4-.6l1.4-1.4H10z"/></svg>