<svg xmlns="http://www.w3.org/2000/svg" xmlns:xlink="http://www.w3.org/1999/xlink" viewBox="0 0 24 24" fill="#FFFFFF">
  <path d="M0 3L0 17L24 17L24 3L0 3 z M 5.125 4.5L18.875 4.5L19.765625 5.2675781 A 1.2819999 1 44.999 0 0 20.191406 6.4316406 A 1.2819999 1 44.999 0 0 21.546875 6.8046875L22.5 7.625L22.5 12.375L21.546875 13.197266 A 1 1.2819999 44.999 0 0 20.193359 13.568359 A 1 1.2819999 44.999 0 0 19.765625 14.732422L18.875 15.5L5.125 15.5L4.2324219 14.730469 A 1.2819999 1 44.999 0 0 3.8066406 13.568359 A 1.2819999 1 44.999 0 0 2.453125 13.195312L1.5 12.375L1.5 7.625L2.453125 6.8027344 A 1 1.2819999 44.999 0 0 3.8066406 6.4316406 A 1 1.2819999 44.999 0 0 4.234375 5.2675781L5.125 4.5 z M 12 6.625 A 3.625 3.375 0 0 0 8.375 10 A 3.625 3.375 0 0 0 12 13.375 A 3.625 3.375 0 0 0 15.625 10 A 3.625 3.375 0 0 0 12 6.625 z M 5.5 8.625 A 1.5 1.375 0 0 0 4 10 A 1.5 1.375 0 0 0 5.5 11.375 A 1.5 1.375 0 0 0 7 10 A 1.5 1.375 0 0 0 5.5 8.625 z M 18.5 8.625 A 1.5 1.375 0 0 0 17 10 A 1.5 1.375 0 0 0 18.5 11.375 A 1.5 1.375 0 0 0 20 10 A 1.5 1.375 0 0 0 18.5 8.625 z M 0 18L0 20L0.75 20C9.8986486 20 21.126953 21.865234 21.126953 21.865234L22 22.009766L22 18L21.5 18L20.5 18L20.5 18.009766L18.96875 18.009766C18.96075 18.017766 18.950359 18.020344 18.943359 18.027344C18.572332 18.397631 18.428595 18.885264 18.537109 19.271484L17.634766 19.849609C14.015693 19.356382 7.6632741 18.615729 1.5 18.550781L1.5 18L0 18 z" fill="#FFFFFF" />
</svg>