<svg xmlns="http://www.w3.org/2000/svg" viewBox="0 0 48 48"><path fill="#bbdefb" d="M41,8H7c-1.105,0-2,0.895-2,2v28c0,1.105,0.895,2,2,2h34c1.105,0,2-0.895,2-2V10C43,8.895,42.105,8,41,8z"/><path fill="#1976d2" d="M22,21h-8.969v-2H22V21z M22,15h-8.969v2H22V15z M21.969,27H13v2h8.969V27z M21.969,31H13v2h8.969V31z M21.969,23H13v2h8.969V23z M9.039,17h1.996v-2H9.039V17z M9.039,21h1.996v-2H9.039V21z M9.039,33h1.996v-2H9.039V33z M9.039,25h1.996v-2H9.039V25z M9.039,29h1.996v-2H9.039V29z M39,19h-8.969v2H39V19z M39,15h-8.969v2H39V15z M38.969,27H30v2h8.969V27z M38.969,31H30v2h8.969V31z M38.969,23H30v2h8.969V23z M26.039,17h1.996v-2h-1.996V17z M26.039,21h1.996v-2h-1.996V21z M26.039,33h1.996v-2h-1.996V33z M26.039,25h1.996v-2h-1.996V25z M26.039,29h1.996v-2h-1.996V29z"/></svg>