<svg xmlns="http://www.w3.org/2000/svg" viewBox="0 0 48 48"><path fill="#3F51B5" d="M38,12c0,0.6-0.4,1-1,1H5c-0.6,0-1-0.4-1-1V5c0-0.6,0.4-1,1-1h32c0.6,0,1,0.4,1,1V12z"/><path fill="#BBDEFB" d="M4 9H38V38H4z"/><path fill="#1976D2" d="M15 18H31V20H15zM28.4 22H15v2h10.5C26.3 23.2 27.3 22.5 28.4 22zM15 14H31V16H15zM23.8 26H15v2h7.8C23 27.3 23.4 26.6 23.8 26zM11 14H13V16H11zM11 18H13V20H11zM11 30H13V32H11zM15 30v2h7c0-.7.1-1.4.2-2H15zM11 22H13V24H11zM11 26H13V28H11z"/><path fill="#00ACC1" d="M44,33c0,5.5-4.5,10-10,10s-10-4.5-10-10s4.5-10,10-10S44,27.5,44,33"/><path fill="#EEE" d="M41,33c0,3.9-3.1,7-7,7s-7-3.1-7-7s3.1-7,7-7S41,29.1,41,33"/><path d="M38.4,36.1l-2.9-2.9c0-0.1,0-0.1,0-0.2c0-0.4-0.2-0.8-0.5-1.1V28h-2v3.9c-0.3,0.3-0.5,0.7-0.5,1.1c0,0.8,0.7,1.5,1.5,1.5h0.1l2.9,2.9L38.4,36.1z"/></svg>