<svg xmlns="http://www.w3.org/2000/svg" viewBox="0 0 32 32">
  <path d="M16 4C9.382813 4 4 9.382813 4 16C4 22.617188 9.382813 28 16 28C16.679688 28 17.347656 27.9375 18 27.828125L18 32L32 32L32 18L18 18L18 25.777344C17.351563 25.910156 16.6875 26 16 26C10.464844 26 6 21.535156 6 16C6 10.464844 10.464844 6 16 6C19.273438 6 22.15625 7.578125 23.980469 10L20 10L20 12L27 12L27 5L25 5L25 8.070313C22.800781 5.578125 19.582031 4 16 4 Z M 20 20L30 20L30 30L20 30 Z M 28 21.902344L24.699219 25.199219L22.402344 22.902344L21 24.300781L24.699219 28L29.402344 23.300781Z" fill="#FFFFFF" />
</svg>